#define a_22_width 24
#define a_22_height 24
static char a_22_bits[] = {
 0x00,0x00,0x00,0x00,0x00,0x00,0x00,0x00,0x00,0x00,0x00,0x00,0x00,0x00,0x00,
 0x00,0x00,0x00,0x00,0x00,0x00,0x00,0x3e,0x00,0x00,0x63,0x00,0x00,0x63,0x00,
 0x00,0x70,0x00,0x00,0x6e,0x00,0x00,0x63,0x00,0x00,0x63,0x00,0x00,0x73,0x01,
 0x00,0xee,0x00,0x00,0x00,0x00,0x00,0x00,0x00,0x00,0x00,0x00,0x00,0x00,0x00,
 0x00,0x00,0x00,0x00,0x00,0x00,0x00,0x00,0x00,0x00,0x00,0x00};
