#define a_24_width 24
#define a_24_height 24
static char a_24_bits[] = {
 0x00,0x00,0x00,0x00,0x00,0x00,0x00,0x00,0x00,0x00,0x00,0x00,0x00,0x00,0x00,
 0x00,0x00,0x00,0x00,0x00,0x00,0x00,0x3e,0x00,0x00,0x63,0x00,0x00,0x63,0x00,
 0x00,0x70,0x00,0x00,0x6c,0x00,0x00,0x66,0x00,0x00,0x63,0x00,0x00,0x63,0x00,
 0x00,0x73,0x00,0x00,0xee,0x00,0x00,0x00,0x00,0x00,0x00,0x00,0x00,0x00,0x00,
 0x00,0x00,0x00,0x00,0x00,0x00,0x00,0x00,0x00,0x00,0x00,0x00};
