#define a_26_width 24
#define a_26_height 24
static char a_26_bits[] = {
 0x00,0x00,0x00,0x00,0x00,0x00,0x00,0x00,0x00,0x00,0x00,0x00,0x00,0x00,0x00,
 0x00,0x00,0x00,0x00,0x7c,0x00,0x00,0xe3,0x00,0x00,0xc3,0x00,0x00,0xc3,0x00,
 0x00,0xe0,0x00,0x00,0xdc,0x00,0x00,0xc6,0x00,0x00,0xc3,0x00,0x00,0xc3,0x00,
 0x00,0xe7,0x02,0x00,0xde,0x01,0x00,0x00,0x00,0x00,0x00,0x00,0x00,0x00,0x00,
 0x00,0x00,0x00,0x00,0x00,0x00,0x00,0x00,0x00,0x00,0x00,0x00};
