#define a_36_width 24
#define a_36_height 24
static char a_36_bits[] = {
 0x00,0x00,0x00,0x00,0x00,0x00,0x00,0x00,0x00,0x00,0x00,0x00,0x00,0x00,0x00,
 0x00,0x7e,0x00,0x00,0xe3,0x00,0x80,0xc3,0x01,0x80,0xc3,0x01,0x80,0xc3,0x01,
 0x00,0xe0,0x01,0x00,0xdc,0x01,0x00,0xc7,0x01,0x80,0xc1,0x01,0xc0,0xc1,0x01,
 0xc0,0xc1,0x01,0xc0,0xe3,0x05,0x80,0xdf,0x03,0x00,0x87,0x01,0x00,0x00,0x00,
 0x00,0x00,0x00,0x00,0x00,0x00,0x00,0x00,0x00,0x00,0x00,0x00};
