#define a_48_width 24
#define a_48_height 24
static char a_48_bits[] = {
 0x00,0x00,0x00,0x00,0xfe,0x00,0x80,0xe3,0x01,0xc0,0xc1,0x03,0xe0,0x81,0x07,
 0xe0,0x81,0x07,0xe0,0x81,0x07,0xc0,0x80,0x07,0x00,0x80,0x07,0x00,0xc0,0x07,
 0x00,0xb8,0x07,0x00,0x8e,0x07,0x80,0x83,0x07,0xc0,0x81,0x07,0xe0,0x80,0x07,
 0xf0,0x80,0x07,0xf0,0x80,0x07,0xf0,0x80,0x07,0xf0,0xc0,0x07,0xe0,0xe1,0x27,
 0xe0,0x9f,0x1f,0xc0,0x07,0x07,0x00,0x00,0x00,0x00,0x00,0x00};
